<svg xmlns="http://www.w3.org/2000/svg" xmlns:xlink="http://www.w3.org/1999/xlink" version="1.1" x="0px" y="0px" viewBox="0 0 100 125" enable-background="new 0 0 100 100" xml:space="preserve"><path d="M57.44,46.054C58.423,44.612,59,42.873,59,41c0-4.963-4.037-9-9-9s-9,4.037-9,9  c0,1.873,0.577,3.612,1.56,5.054C38.066,48.648,35,53.449,35,59v3c0,1.657,1.343,3,3,3h24c1.657,0,3-1.343,3-3v-3  C65,53.449,61.934,48.648,57.44,46.054z M50,38c1.654,0,3,1.346,3,3s-1.346,3-3,3s-3-1.346-3-3S48.346,38,50,38z M41,59  c0-4.963,4.037-9,9-9s9,4.037,9,9H41z"/><path d="M89,47h-3.152C84.398,29.543,70.457,15.602,53,14.152V11c0-1.657-1.343-3-3-3s-3,1.343-3,3v3.152  C29.543,15.602,15.602,29.543,14.152,47H11c-1.657,0-3,1.343-3,3s1.343,3,3,3h3.152C15.602,70.457,29.543,84.398,47,85.848V89  c0,1.657,1.343,3,3,3s3-1.343,3-3v-3.152C70.457,84.398,84.398,70.457,85.848,53H89c1.657,0,3-1.343,3-3S90.657,47,89,47z M77,53  h2.848C78.436,67.152,67.152,78.436,53,79.848V77c0-1.657-1.343-3-3-3s-3,1.343-3,3v2.848C32.848,78.436,21.564,67.152,20.152,53H23  c1.657,0,3-1.343,3-3s-1.343-3-3-3h-2.848C21.564,32.848,32.848,21.564,47,20.152V23c0,1.657,1.343,3,3,3s3-1.343,3-3v-2.848  C67.152,21.564,78.436,32.848,79.848,47H77c-1.657,0-3,1.343-3,3S75.343,53,77,53z"/><text x="0" y="115" fill="#000000" font-size="5px" font-weight="bold" font-family="'Helvetica Neue', Helvetica, Arial-Unicode, Arial, Sans-serif">Created by Ayub Irawan</text><text x="0" y="120" fill="#000000" font-size="5px" font-weight="bold" font-family="'Helvetica Neue', Helvetica, Arial-Unicode, Arial, Sans-serif">from the Noun Project</text></svg>